<svg xmlns="http://www.w3.org/2000/svg" viewBox="0 0 1264 842">
<g transform="translate(0,842) scale(0.1,-0.1)" fill="#000000" stroke="none">
<path d="M6125 7558 c-822 -23 -1513 -206 -1772 -470 -75 -76 -106 -141 -106
-219 0 -78 30 -134 116 -216 221 -208 676 -346 1387 -420 238 -24 903 -24
1155 0 239 24 369 42 555 77 526 100 886 271 991 472 30 56 33 166 5 218 -53
101 -149 181 -318 266 -436 219 -1117 318 -2013 292z m575 -402 c311 -42 490
-131 490 -244 0 -109 -209 -213 -518 -258 -131 -20 -478 -23 -609 -6 -210 28
-400 96 -462 167 -24 28 -31 45 -31 79 0 36 7 51 41 89 79 91 242 145 544 180
85 11 450 5 545 -7z"/>
<path d="M6210 7034 c-220 -19 -350 -57 -379 -112 -21 -40 41 -86 155 -116
154 -40 463 -45 659 -11 91 16 190 57 208 86 31 50 -41 105 -178 134 -78 16
-362 28 -465 19z"/>
<path d="M4897 6224 c-11 -11 -8 -194 3 -255 16 -86 48 -139 135 -225 287
-285 923 -561 1615 -698 339 -67 951 -123 1093 -100 l37 7 0 223 c0 211 -1
224 -19 234 -11 5 -71 10 -133 10 -220 0 -588 70 -891 170 -353 117 -558 227
-737 395 l-55 52 -85 7 c-136 12 -359 44 -518 77 -131 26 -381 88 -423 104 -8
3 -18 2 -22 -1z"/>
<path d="M7665 6164 c-299 -85 -616 -121 -1153 -131 -194 -3 -355 -9 -357 -13
-6 -10 87 -71 186 -120 266 -134 686 -251 1062 -296 205 -24 319 -7 346 52 12
27 16 436 5 493 -7 35 -14 36 -89 15z"/>
<path d="M4896 5537 c-3 -28 -6 -145 -6 -258 0 -265 3 -274 119 -390 206 -204
607 -406 1059 -534 426 -119 877 -189 1397 -216 127 -7 252 -9 278 -5 l47 7 0
303 0 303 -232 6 c-401 10 -897 80 -1293 183 -531 139 -966 338 -1260 575 -45
36 -86 68 -92 72 -6 4 -13 -13 -17 -46z"/>
<path d="M4892 4462 c4 -263 5 -268 31 -325 28 -62 94 -132 196 -211 471 -363
1390 -603 2384 -623 l277 -6 0 312 0 311 -127 0 c-213 0 -575 30 -858 71 -757
108 -1478 379 -1837 690 -31 27 -60 49 -64 49 -3 0 -5 -120 -2 -268z"/>
<path d="M4902 3583 c3 -255 3 -259 30 -315 108 -230 629 -505 1238 -652 423
-103 839 -155 1303 -163 l317 -6 -2 309 -3 309 -215 7 c-611 18 -1247 127
-1775 303 -370 123 -633 256 -826 416 -32 27 -61 49 -64 49 -4 0 -5 -116 -3
-257z"/>
<path d="M4902 2708 l3 -284 34 -69 c102 -207 490 -457 928 -599 454 -146 895
-185 1333 -120 318 48 507 133 573 258 18 36 21 58 21 186 l1 145 -125 -3
c-237 -7 -733 33 -1041 83 -300 49 -547 108 -817 197 -371 121 -642 260 -848
435 l-65 54 3 -283z"/>
<path d="M4914 2015 c-20 -49 -18 -114 6 -150 63 -95 359 -194 717 -240 68 -9
151 -15 185 -13 l63 3 -165 54 c-333 108 -539 206 -716 342 -28 21 -56 39 -63
39 -7 0 -19 -16 -27 -35z"/>
<path d="M4675 1970 c-138 -49 -290 -138 -357 -207 -133 -139 -107 -308 69
-448 71 -56 266 -154 390 -195 427 -141 932 -205 1633 -204 503 0 778 21 1109
85 486 95 832 266 931 460 31 60 37 147 15 206 -24 63 -120 156 -220 214 -81
47 -222 109 -247 109 -11 0 -13 -15 -10 -65 3 -51 0 -73 -17 -108 -101 -208
-507 -354 -1166 -419 -191 -19 -739 -16 -940 5 -618 64 -1003 202 -1109 396
-24 45 -27 60 -24 121 2 39 1 70 -2 69 -3 0 -27 -9 -55 -19z"/>
</g>
</svg>
